<svg width="60" height="60" viewBox="0 0 60 60" fill="none" xmlns="http://www.w3.org/2000/svg">
<path fill-rule="evenodd" clip-rule="evenodd" d="M41.175 60V36.765H48.975L50.142 27.711H41.172V21.93C41.172 19.308 41.901 17.52 45.663 17.52H50.457V9.42C48.1353 9.17293 45.8018 9.05275 43.467 9.06C36.555 9.06 31.824 13.281 31.824 21.03V27.711H24V36.765H31.821V60H3.312C1.482 60 0 58.518 0 56.688V3.312C0 1.482 1.482 0 3.312 0H56.688C58.518 0 60 1.482 60 3.312V56.688C60 58.518 58.518 60 56.688 60H41.175Z" fill="white"/>
</svg>
