<svg width="60" height="60" viewBox="0 0 60 60" fill="none" xmlns="http://www.w3.org/2000/svg">
<g clip-path="url(#clip0)">
<path d="M59.9997 7.10718C58.3289 10.1667 56.2791 12.7747 53.8503 14.9314C53.8742 15.5098 53.8862 16.1635 53.8862 16.8926C53.8862 20.9435 53.4065 24.9993 52.447 29.06C51.4875 33.1208 50.0218 37.0077 48.05 40.7206C46.0782 44.4336 43.7295 47.7229 41.0037 50.5887C38.278 53.4545 35.0015 55.7395 31.1743 57.4437C27.3471 59.1479 23.2454 60.0001 18.8691 60.0001C12.0392 60.0001 5.7496 57.7302 0.000183105 53.1905C1.02064 53.3303 1.99934 53.4002 2.93628 53.4002C8.64209 53.4002 13.7383 51.2366 18.2249 46.9096C15.5645 46.8495 13.182 45.8413 11.0772 43.885C8.97246 41.9287 7.52402 39.429 6.73189 36.3857C7.51485 36.5693 8.28762 36.6611 9.05018 36.6611C10.1478 36.6611 11.2279 36.4849 12.2904 36.1324C9.4513 35.4324 7.09601 33.6916 5.22455 30.91C3.35316 28.1285 2.41746 24.918 2.41746 21.2786V21.0911C4.16012 22.2789 6.01894 22.9108 7.99392 22.9866C6.31205 21.6063 4.97859 19.8063 3.99352 17.5867C3.00838 15.367 2.51582 12.965 2.51582 10.3805C2.51582 7.65482 3.07064 5.11666 4.18028 2.76606C7.26777 7.43034 11.0089 11.1582 15.4037 13.9496C19.7985 16.741 24.5133 18.2913 29.5482 18.6004C29.3334 17.4987 29.2258 16.349 29.2255 15.1513C29.2255 10.9695 30.4276 7.3988 32.8318 4.43928C35.2361 1.47976 38.1367 0 41.5336 0C45.0901 0 48.0858 1.59422 50.5206 4.78266C53.3025 4.1043 55.9073 2.87732 58.335 1.10172C57.3997 4.72532 55.5975 7.52068 52.9283 9.4878C55.3815 9.12892 57.7386 8.33538 59.9996 7.10718H59.9997Z" fill="white"/>
</g>
<defs>
<clipPath id="clip0">
<rect width="60" height="60" fill="white"/>
</clipPath>
</defs>
</svg>
