<svg width="60" height="60" viewBox="0 0 60 60" fill="none" xmlns="http://www.w3.org/2000/svg">
<g clip-path="url(#clip0)">
<path d="M58.7509 16.2677C58.4112 15.0558 57.7494 13.9586 56.8359 13.0927C55.8966 12.2002 54.7454 11.5618 53.4909 11.2377C48.7959 10.0002 29.9859 10.0002 29.9859 10.0002C22.1443 9.91097 14.3045 10.3034 6.51093 11.1752C5.25641 11.5232 4.10734 12.1759 3.16593 13.0752C2.24093 13.9652 1.57093 15.0627 1.22093 16.2652C0.380165 20.7945 -0.0283373 25.3936 0.000932607 30.0002C-0.0290674 34.6027 0.378433 39.2002 1.22093 43.7352C1.56343 44.9327 2.23093 46.0252 3.15843 46.9077C4.08593 47.7902 5.24093 48.4277 6.51093 48.7652C11.2684 50.0002 29.9859 50.0002 29.9859 50.0002C37.8376 50.0895 45.6873 49.6971 53.4909 48.8252C54.7454 48.5011 55.8966 47.8627 56.8359 46.9702C57.7609 46.0877 58.4184 44.9902 58.7484 43.7952C59.6112 39.2676 60.0306 34.6667 60.0009 30.0577C60.0658 25.4292 59.6469 20.8066 58.7509 16.2652V16.2677ZM24.0059 38.5602V21.4427L39.6559 30.0027L24.0059 38.5602Z" fill="white"/>
</g>
<defs>
<clipPath id="clip0">
<rect width="60" height="60" fill="white"/>
</clipPath>
</defs>
</svg>
